HIERARCHY
ROOT Hips
{
  OFFSET 13.6774 106.653 -34.4427
  CHANNELS 6 Xposition Yposition Zposition Zrotation Xrotation Yrotation
  JOINT ToSpine
  {
    OFFSET -2.69724 7.43032 -0.144315
    CHANNELS 3 Zrotation Xrotation Yrotation
    JOINT Spine
    {
      OFFSET -0.0310711 10.7595 1.96963
      CHANNELS 3 Zrotation Xrotation Yrotation
      JOINT Spine1
      {
        OFFSET 19.9056 3.91189 0.764692
        CHANNELS 3 Zrotation Xrotation Yrotation
        JOINT Neck
        {
          OFFSET 25.9749 7.03908 -0.130764
          CHANNELS 3 Zrotation Xrotation Yrotation
          JOINT Head
          {
            OFFSET 9.52751 0.295786 -0.907742
            CHANNELS 3 Zrotation Xrotation Yrotation
            End Site
            {
              OFFSET 16.4037 0.713936 2.7358
            }
          }
        }
        JOINT LeftShoulder
        {
          OFFSET 17.7449 4.33886 11.7777
          CHANNELS 3 Zrotation Xrotation Yrotation
          JOINT LeftArm
          {
            OFFSET 0.911315 1.27913 9.80584
            CHANNELS 3 Zrotation Xrotation Yrotation
            JOINT LeftForeArm
            {
              OFFSET 28.6126 1.18197 -3.53199
              CHANNELS 3 Zrotation Xrotation Yrotation
              JOINT LeftHand
              {
                OFFSET 27.5088 0.0218783 0.327423
                CHANNELS 3 Zrotation Xrotation Yrotation
                End Site
                {
                  OFFSET 18.6038 -0.000155887 0.382096
                }
              }
            }
          }
        }
        JOINT RightShoulder
        {
          OFFSET 17.1009 2.89543 -12.2328
          CHANNELS 3 Zrotation Xrotation Yrotation
          JOINT RightArm
          {
            OFFSET 1.4228 0.178766 -10.211
            CHANNELS 3 Zrotation Xrotation Yrotation
            JOINT RightForeArm
            {
              OFFSET 28.733 1.87905 2.64907
              CHANNELS 3 Zrotation Xrotation Yrotation
              JOINT RightHand
              {
                OFFSET 27.4588 0.290562 -0.101845
                CHANNELS 3 Zrotation Xrotation Yrotation
                End Site
                {
                  OFFSET 17.8396 -0.255518 -0.000602873
                }
              }
            }
          }
        }
      }
    }
  }
  JOINT LeftUpLeg
  {
    OFFSET -5.61296 -2.22332 -10.2353
    CHANNELS 3 Zrotation Xrotation Yrotation
    JOINT LeftLeg
    {
      OFFSET 2.56703 -44.7417 -7.93097
      CHANNELS 3 Zrotation Xrotation Yrotation
      JOINT LeftFoot
      {
        OFFSET 3.16933 -46.5642 -3.96578
        CHANNELS 3 Zrotation Xrotation Yrotation
        JOINT LeftToeBase
        {
          OFFSET 0.346054 -6.02161 12.8035
          CHANNELS 3 Zrotation Xrotation Yrotation
          End Site
          {
            OFFSET 0.134235 -1.35082 5.13018
          }
        }
      }
    }
  }
  JOINT RightUpLeg
  {
    OFFSET -5.7928 -1.72406 10.6446
    CHANNELS 3 Zrotation Xrotation Yrotation
    JOINT RightLeg
    {
      OFFSET -2.57161 -44.7178 -7.85259
      CHANNELS 3 Zrotation Xrotation Yrotation
      JOINT RightFoot
      {
        OFFSET -3.10148 -46.5936 -4.03391
        CHANNELS 3 Zrotation Xrotation Yrotation
        JOINT RightToeBase
        {
          OFFSET -0.0828122 -6.13587 12.8035
          CHANNELS 3 Zrotation Xrotation Yrotation
          End Site
          {
            OFFSET -0.131328 -1.35082 5.13018
          }
        }
      }
    }
  }
}
MOTION
Frames: 14
Frame Time: 0.03333333333333333
0.0000 93.1000 0.0000 -51.4720 -19.2073 176.3740 -71.1462 1.2559 87.8068 122.9462 68.9654 -39.4276 -6.6815 21.5172 2.1952 -163.0361 31.5399 -178.4388 -149.0635 71.2084 -175.1371 1.3829 -15.0325 -32.0728 -69.8849 50.8746 -67.1320 20.7738 18.2262 -50.1003 0.2653 -0.6845 0.0397 -2.7487 6.3922 46.4548 -68.6656 -19.7505 82.4053 24.2087 -18.6257 54.9680 -0.4207 1.4188 0.0669 -49.7564 3.9409 90.9168 -14.3580 73.0105 0.7073 -9.2361 5.9152 2.0176 0.7727 -4.3779 4.7712 -7.8116 1.3980 80.4455 5.2944 67.8691 -6.6849 -10.7491 -26.3053 1.2912 3.6240 -1.6137 -29.5601 
0.0000 93.1000 0.0000 -52.9693 -14.0672 173.3246 -71.1328 2.1456 87.7893 132.9715 68.6401 -47.5719 -8.9666 24.8072 1.5602 -168.1997 29.8882 -176.8406 -146.3147 69.0480 -179.2243 1.4447 -13.9895 -32.0730 -58.3978 57.0949 -74.6336 18.8838 21.3966 -43.2970 0.5512 0.2563 -0.9454 -1.0471 6.5897 43.8175 -72.0387 -19.9969 88.5334 28.7959 -16.8605 63.9025 1.1456 0.0970 1.2994 -39.4422 4.9981 94.3469 -65.4243 83.9070 49.6690 -7.6756 7.6404 -0.4653 3.7715 -10.6251 5.8986 -17.5476 4.5391 83.0384 4.7779 64.9295 -4.8630 -11.4261 -27.5790 3.6555 4.9838 -5.5630 -28.2790 
0.0000 93.1000 0.0000 -52.2741 -9.9578 171.0265 -71.0996 0.3608 87.8310 135.7482 69.5831 -50.9353 -10.0949 26.9446 1.3944 -166.4742 28.9238 -176.2242 -142.1977 67.8596 177.7619 0.4625 -14.1848 -32.0309 -49.1193 60.6027 -79.6976 23.1853 25.9057 -44.5485 -0.2225 0.2499 0.5525 -2.3148 7.3197 40.3534 -75.9038 -24.4965 94.9766 33.8737 -11.5317 73.9274 -0.3024 0.0248 0.0805 -25.1703 3.7804 93.9459 -139.0298 81.8747 125.9774 -6.1898 5.5236 0.7975 2.8412 -9.2760 7.0395 -26.7114 4.6011 83.0666 3.6264 57.9714 1.2050 -8.5633 -28.9612 1.0694 2.5955 -6.4457 -27.1261 
0.0000 93.1000 0.0000 -52.7115 -8.7631 169.1330 -71.2030 1.5969 87.7975 136.8957 71.0712 -53.8728 -11.3051 28.3055 3.3880 -166.3314 29.5796 -176.1605 -140.1770 67.9756 173.7207 1.1841 -14.0053 -31.0334 -45.0608 64.8834 -78.7542 31.3992 28.7456 -52.1487 0.2084 -0.2124 -0.5492 -1.4923 6.9186 37.4959 -76.2848 -27.9738 98.6474 39.3650 -6.1636 83.0321 0.3454 0.4151 0.6937 -16.2206 3.3098 92.9141 -135.3831 82.9112 124.9862 -4.2768 5.4918 -0.0260 1.1959 -5.6656 9.3552 -39.3466 3.2576 85.1422 2.7071 48.5412 3.4781 -5.4298 -23.3830 1.8586 2.4726 -10.8728 -15.6475 
0.0000 93.1000 0.0000 -53.6865 -7.6156 167.8092 -71.2970 1.7780 87.7368 134.4408 73.1813 -51.3907 -10.5844 29.0539 3.4494 -165.8491 30.1334 -177.3763 -141.9425 68.3447 174.3413 1.2085 -13.9941 -29.0534 -37.3997 69.1063 -80.8735 31.8016 23.8349 -57.1179 0.6863 -0.2326 -0.8627 -1.0361 6.9857 36.2393 -76.6405 -30.8714 101.1302 41.2745 1.4692 91.2060 0.6129 0.1900 0.4878 -10.0754 1.3327 93.5161 -40.9816 83.1093 32.7220 -1.9237 7.6966 -0.6232 0.9150 -5.4687 8.2458 -52.3111 1.6674 84.9704 1.9774 37.8611 6.0618 -2.5387 -7.0495 1.2053 2.6831 -20.9330 0.0573 
0.0000 93.1000 0.0000 -52.6516 -5.3682 167.9361 -71.0761 2.7445 87.7369 131.9452 74.9869 -47.9855 -8.8581 29.0295 3.3672 -166.8949 29.9486 -177.7387 -143.1236 68.2435 172.8776 1.8157 -13.8828 -28.2469 -29.1976 70.5854 -85.5988 29.8153 18.9284 -60.3432 0.9366 -0.0344 -1.0554 0.2111 7.0168 33.9106 -77.3226 -33.4168 100.2827 41.8550 6.7786 97.1938 1.2406 -0.0128 1.2504 -7.3301 0.1558 94.2297 -9.9292 69.8567 1.6466 -5.8547 9.9195 -1.0118 0.7280 -5.6014 7.6340 -59.4521 -1.2289 80.9365 0.8390 31.9353 16.0877 2.4645 12.2923 1.0886 2.9834 -22.4455 3.6328 
0.0000 93.1000 0.0000 -53.8458 -2.9970 167.9508 -71.1029 0.4884 88.0515 131.8734 76.6722 -45.7708 -8.4694 30.1010 1.7941 -166.9043 30.0369 -176.0321 -148.4553 69.0797 176.9450 0.5055 -13.7996 -28.2229 -25.7548 71.1023 -88.6666 28.4731 15.3086 -62.9727 0.2774 0.4354 0.0049 -1.3463 7.2054 33.2083 -78.3307 -33.7793 95.2281 40.2306 9.9764 100.8208 0.6736 -0.3963 0.6595 -9.0935 -0.5726 97.0319 -4.9513 50.6806 -13.5085 -11.8321 11.9464 1.6776 0.6100 -5.8223 8.7364 -64.8938 -1.6543 79.4107 -1.2304 31.1896 29.5759 4.3876 19.9627 -2.1988 2.7310 -12.2953 -18.2104 
0.0000 93.1000 0.0000 -53.8661 -1.4051 169.5473 -71.1690 2.0302 87.5290 128.8966 78.2393 -40.2430 -6.5203 30.7999 0.8468 -166.8825 28.7729 -175.6541 -151.1170 69.0890 -180.4559 1.7289 -12.9487 -28.2357 -31.3603 72.8345 -83.5426 27.4689 15.3745 -64.2500 0.0826 0.0517 -0.8290 -0.3055 7.0546 33.9187 -81.9713 -32.2661 90.9855 37.4560 7.8250 99.8376 1.4238 0.1104 1.2160 -10.7235 -0.5656 99.7646 -3.6363 33.9029 -19.9355 -15.8064 13.4700 1.7092 2.7630 -7.9865 7.1631 -67.3711 1.6702 90.7764 1.8413 35.8511 10.5209 0.3005 17.6993 0.5174 2.1256 -7.7924 -6.7002 
0.0000 93.1000 0.0000 -55.8789 -0.4365 171.5106 -71.3140 1.5638 87.4623 131.9418 77.0527 -41.5337 -6.5104 30.0452 0.2697 -165.9646 28.8532 -175.3187 -152.6057 68.0177 -173.6793 1.5519 -12.3702 -29.2055 -40.6247 72.5996 -76.8473 28.0895 14.8498 -63.7496 0.1467 -0.0361 -0.4218 -0.6179 7.1531 35.2025 -85.4789 -28.6389 85.4168 32.7915 2.9251 94.4810 0.9756 0.2958 1.3357 -14.0868 -1.8308 98.0802 -5.5476 26.2607 -11.5431 -17.4967 12.9746 2.5218 2.7326 -9.0082 5.5723 -68.0713 2.7360 91.1204 1.2063 46.3986 3.7805 -2.4641 16.7787 0.3705 1.8684 -7.4919 -7.3916 
0.0000 93.1000 0.0000 -59.1239 -0.7558 172.7854 -71.2255 0.6751 87.9270 131.2377 74.9495 -40.3801 -6.8706 28.3872 1.0587 -163.3000 28.0187 -175.6059 -155.1508 67.9450 -171.3163 0.9385 -12.0871 -30.4751 -53.6166 70.3513 -68.0838 28.9231 15.9954 -62.9843 -0.1407 -0.1318 0.0050 -1.7238 6.4215 39.0945 -89.1251 -24.1587 79.4459 28.6601 -1.7341 87.4038 0.4773 0.6128 0.6277 -17.4616 -3.4893 104.3104 -5.6207 28.8743 -15.9128 -16.8319 12.0133 3.4005 2.4475 -7.3992 2.2339 -67.3991 2.3325 88.4016 3.4207 61.3884 -0.5203 -1.4107 14.6626 -0.8296 1.8445 -2.7692 -13.7383 
0.0000 93.1000 0.0000 -61.3483 -0.1369 173.0970 -71.2785 -1.1865 88.0997 130.7641 73.1081 -39.8974 -7.1633 27.6479 0.6762 -159.9874 27.0384 -176.2884 -154.5999 67.0402 -167.6338 -0.3273 -12.8519 -33.0639 -64.2523 65.5267 -61.0575 29.8402 17.0513 -62.1229 -0.3354 -0.4738 0.4946 -3.8654 6.4249 42.3169 -91.3171 -21.7570 76.7687 26.3330 -6.3204 76.0997 -1.2650 1.1488 -1.0148 -20.6890 -4.7683 108.1429 -4.8113 38.9276 -23.9334 -9.1587 4.3764 3.6628 -1.0097 -1.7767 11.1001 -62.3626 -0.2263 86.0353 11.8484 76.7594 -16.0585 -4.4242 10.9570 -2.4762 -0.4348 -3.3447 -9.8990 
0.0000 93.1000 0.0000 -63.2908 0.5369 172.0197 -71.4673 -0.9172 88.1492 124.0817 72.7461 -35.6774 -5.2300 26.1428 0.7852 -158.1197 24.2068 179.0475 -151.2064 63.9127 -169.8159 -0.2362 -13.4336 -34.6386 -71.5494 59.1885 -59.1016 31.8247 19.5392 -61.8492 0.2702 -1.0483 0.1932 -4.0591 5.4375 44.6843 -93.3477 -22.1190 76.0112 24.9519 -13.8869 62.7635 -0.9862 1.4553 -2.1693 -22.9317 -6.5757 107.0017 -6.1001 51.7882 -16.7783 0.5442 -9.2646 1.1300 -1.4196 -0.7602 4.2668 -53.2081 -2.1949 87.8465 138.7806 83.7145 -144.8756 -8.8403 9.3084 -1.7552 0.6624 -10.2446 -12.0559 
0.0000 93.1000 0.0000 -63.6613 0.2082 169.2407 -71.4084 -1.1910 88.2074 108.0632 71.6706 -24.8705 -4.4268 23.4344 0.4972 -160.4111 22.4672 177.6136 -153.3844 61.6211 -170.0278 -0.8530 -14.3700 -34.8152 -75.4440 49.9197 -63.0487 33.7488 19.6066 -62.0697 1.0140 -0.3508 -1.0275 -3.4888 5.2837 45.2054 -91.3524 -23.3915 75.2629 20.8309 -18.6082 48.2500 -0.5980 0.5028 -1.2228 -26.1887 -9.8678 105.2991 -6.9083 56.8239 -19.1384 2.1265 -15.2447 -1.0235 0.8795 -6.6107 13.4321 -38.1495 -5.0523 91.2733 166.0652 72.6869 -176.0890 -13.4726 8.4808 0.1606 1.4473 -13.8741 -6.5683 
0.0000 93.1000 0.0000 -61.8365 -1.4596 168.5201 -71.1684 -1.7364 88.2823 105.1760 71.1862 -25.1318 -4.6983 21.9936 -0.1691 -160.2518 20.3338 177.5427 -153.5425 60.0601 -169.7373 -1.1746 -15.1249 -34.0174 -82.3093 40.8381 -63.0213 34.7308 20.0598 -63.0983 0.2780 0.1474 0.0444 -3.6088 4.7705 47.2939 -83.9573 -24.2764 75.0915 15.0859 -22.6858 35.0175 -1.1258 0.0265 -0.5940 -33.0789 -14.0034 104.3308 -6.9393 57.0187 -20.8058 1.7804 -18.1945 -0.9083 2.9142 -10.9792 17.2981 -24.5772 -1.7209 95.2027 168.9700 67.9998 178.1505 -14.6046 7.1864 0.2429 0.7769 -16.1496 -7.1411 
